<svg xmlns="http://www.w3.org/2000/svg" viewBox="0 0 24 24" fill="none">
  <path d="M8 3 C6 3 4 4 4 6 L4 18 C4 20 6 21 8 21 L18 21 C18 21 18 19 16 19 L8 19 C7 19 6 18.5 6 18 C6 17.5 7 17 8 17 L18 17 L18 6 C18 4 16 3 14 3 Z" stroke="currentColor" stroke-width="1.5" stroke-linejoin="round"/>
  <path d="M6 18 L6 6 C6 5 7 4 8 4" stroke="currentColor" stroke-width="1" opacity="0.4"/>
  <line x1="9" y1="8" x2="15" y2="8" stroke="currentColor" stroke-width="1" stroke-linecap="round" opacity="0.5"/>
  <line x1="9" y1="11" x2="15" y2="11" stroke="currentColor" stroke-width="1" stroke-linecap="round" opacity="0.5"/>
  <line x1="9" y1="14" x2="13" y2="14" stroke="currentColor" stroke-width="1" stroke-linecap="round" opacity="0.5"/>
</svg>
