<svg xmlns="http://www.w3.org/2000/svg" viewBox="0 0 80 100" fill="none" stroke="#8b7d65" stroke-width="1" stroke-linecap="round" stroke-linejoin="round">
  <!-- Tube -->
  <path d="M26,30 L22,35 L22,82 Q22,90 30,90 L50,90 Q58,90 58,82 L58,35 L54,30" fill="#c4b99a" opacity="0.15"/>
  <path d="M26,30 L22,35 L22,82 Q22,90 30,90 L50,90 Q58,90 58,82 L58,35 L54,30"/>
  <!-- Tube opening -->
  <ellipse cx="40" cy="28" rx="14" ry="4" fill="#f4ead5" opacity="0.3"/>
  <ellipse cx="40" cy="28" rx="14" ry="4"/>
  <!-- Squeeze dots coming out -->
  <circle cx="36" cy="20" r="2" fill="#8b7d65" opacity="0.1"/>
  <circle cx="42" cy="18" r="2.5" fill="#8b7d65" opacity="0.12"/>
  <circle cx="38" cy="14" r="1.5" fill="#8b7d65" opacity="0.08"/>
  <circle cx="45" cy="15" r="1.8" fill="#8b7d65" opacity="0.1"/>
  <!-- Scrub particle decoration on tube -->
  <circle cx="32" cy="55" r="1.5" fill="#8b7d65" opacity="0.08"/>
  <circle cx="40" cy="50" r="2" fill="#8b7d65" opacity="0.1"/>
  <circle cx="48" cy="57" r="1.5" fill="#8b7d65" opacity="0.08"/>
  <circle cx="36" cy="65" r="1.8" fill="#8b7d65" opacity="0.09"/>
  <circle cx="45" cy="68" r="1.2" fill="#8b7d65" opacity="0.07"/>
  <circle cx="30" cy="72" r="1.5" fill="#8b7d65" opacity="0.08"/>
  <circle cx="50" cy="75" r="1.8" fill="#8b7d65" opacity="0.09"/>
</svg>