<svg xmlns="http://www.w3.org/2000/svg" viewBox="0 0 80 100" fill="none" stroke="#8b7d65" stroke-width="1" stroke-linecap="round" stroke-linejoin="round">
  <!-- Jar/pot -->
  <path d="M16,50 Q12,52 12,58 L12,80 Q12,90 22,90 L58,90 Q68,90 68,80 L68,58 Q68,52 64,50" fill="#c4b99a" opacity="0.15"/>
  <path d="M16,50 Q12,52 12,58 L12,80 Q12,90 22,90 L58,90 Q68,90 68,80 L68,58 Q68,52 64,50"/>
  <!-- Lid -->
  <path d="M16,50 Q16,42 24,40 L56,40 Q64,42 64,50" fill="#f4ead5" opacity="0.3"/>
  <path d="M16,50 Q16,42 24,40 L56,40 Q64,42 64,50"/>
  <!-- Lid handle -->
  <path d="M35,40 Q35,34 40,32 Q45,34 45,40"/>
  <!-- Leaf decorations -->
  <path d="M30,65 Q24,58 30,52 Q36,58 30,65" fill="#8b7d65" opacity="0.1"/>
  <path d="M30,65 Q24,58 30,52" opacity="0.4"/>
  <path d="M50,65 Q56,58 50,52 Q44,58 50,65" fill="#8b7d65" opacity="0.1"/>
  <path d="M50,65 Q56,58 50,52" opacity="0.4"/>
  <!-- Center dot -->
  <circle cx="40" cy="62" r="3" fill="#8b7d65" opacity="0.15"/>
  <!-- Steam/aroma -->
  <path d="M32,35 Q30,28 33,22" opacity="0.2" stroke-dasharray="2,3"/>
  <path d="M40,32 Q38,24 41,18" opacity="0.25" stroke-dasharray="2,3"/>
  <path d="M48,35 Q50,28 47,22" opacity="0.2" stroke-dasharray="2,3"/>
</svg>