<svg xmlns="http://www.w3.org/2000/svg" viewBox="0 0 80 100" fill="none" stroke="#8b7d65" stroke-width="1" stroke-linecap="round" stroke-linejoin="round">
  <!-- Jar body -->
  <path d="M18,45 Q14,47 14,52 L14,78 Q14,88 24,88 L56,88 Q66,88 66,78 L66,52 Q66,47 62,45" fill="#c4b99a" opacity="0.15"/>
  <path d="M18,45 Q14,47 14,52 L14,78 Q14,88 24,88 L56,88 Q66,88 66,78 L66,52 Q66,47 62,45"/>
  <!-- Jar lid -->
  <path d="M18,45 L18,38 Q18,34 24,34 L56,34 Q62,34 62,38 L62,45"/>
  <line x1="18" y1="45" x2="62" y2="45"/>
  <!-- Label decoration -->
  <circle cx="40" cy="65" r="14" fill="#f4ead5" opacity="0.4"/>
  <circle cx="40" cy="65" r="11" opacity="0.4"/>
  <!-- Flower on label -->
  <circle cx="40" cy="65" r="3" fill="#8b7d65" opacity="0.2"/>
  <ellipse cx="40" cy="58" rx="3" ry="5" opacity="0.4"/>
  <ellipse cx="40" cy="58" rx="3" ry="5" transform="rotate(60,40,65)" opacity="0.4"/>
  <ellipse cx="40" cy="58" rx="3" ry="5" transform="rotate(120,40,65)" opacity="0.4"/>
  <ellipse cx="40" cy="58" rx="3" ry="5" transform="rotate(180,40,65)" opacity="0.4"/>
  <ellipse cx="40" cy="58" rx="3" ry="5" transform="rotate(240,40,65)" opacity="0.4"/>
  <ellipse cx="40" cy="58" rx="3" ry="5" transform="rotate(300,40,65)" opacity="0.4"/>
  <!-- Sparkle -->
  <path d="M70,30 L72,34 L76,32 L72,36 L74,40 L71,37 L68,40 L70,36 L66,34 L70,34 Z" fill="#8b7d65" opacity="0.15"/>
</svg>