<svg xmlns="http://www.w3.org/2000/svg" viewBox="0 0 80 100" fill="none" stroke="#8b7d65" stroke-width="1" stroke-linecap="round" stroke-linejoin="round">
  <!-- Generic beauty product - compact/palette -->
  <path d="M16,45 L16,75 Q16,82 24,82 L56,82 Q64,82 64,75 L64,45 Q64,38 56,38 L24,38 Q16,38 16,45" fill="#c4b99a" opacity="0.15"/>
  <path d="M16,45 L16,75 Q16,82 24,82 L56,82 Q64,82 64,75 L64,45 Q64,38 56,38 L24,38 Q16,38 16,45"/>
  <!-- Lid line -->
  <line x1="16" y1="52" x2="64" y2="52"/>
  <!-- Mirror on lid -->
  <ellipse cx="40" cy="45" rx="12" ry="4" fill="#f4ead5" opacity="0.3"/>
  <ellipse cx="40" cy="45" rx="12" ry="4" opacity="0.3"/>
  <!-- Product circles in base -->
  <circle cx="30" cy="67" r="8" fill="#f4ead5" opacity="0.3"/>
  <circle cx="30" cy="67" r="8" opacity="0.3"/>
  <circle cx="50" cy="67" r="8" fill="#f4ead5" opacity="0.3"/>
  <circle cx="50" cy="67" r="8" opacity="0.3"/>
  <!-- Flower on product -->
  <circle cx="30" cy="67" r="2" fill="#8b7d65" opacity="0.15"/>
  <ellipse cx="30" cy="63" rx="1.5" ry="3" opacity="0.3"/>
  <ellipse cx="30" cy="63" rx="1.5" ry="3" transform="rotate(72,30,67)" opacity="0.3"/>
  <ellipse cx="30" cy="63" rx="1.5" ry="3" transform="rotate(144,30,67)" opacity="0.3"/>
  <ellipse cx="30" cy="63" rx="1.5" ry="3" transform="rotate(216,30,67)" opacity="0.3"/>
  <ellipse cx="30" cy="63" rx="1.5" ry="3" transform="rotate(288,30,67)" opacity="0.3"/>
  <!-- Star on other circle -->
  <path d="M50,62 L51,65 L54,65 L52,67 L53,70 L50,68 L47,70 L48,67 L46,65 L49,65 Z" fill="#8b7d65" opacity="0.12"/>
</svg>