<svg xmlns="http://www.w3.org/2000/svg" viewBox="0 0 80 100" fill="none" stroke="#8b7d65" stroke-width="1" stroke-linecap="round" stroke-linejoin="round">
  <!-- Dropper bottle -->
  <path d="M28,40 Q24,42 24,48 L24,82 Q24,90 32,90 L48,90 Q56,90 56,82 L56,48 Q56,42 52,40" fill="#c4b99a" opacity="0.15"/>
  <path d="M28,40 Q24,42 24,48 L24,82 Q24,90 32,90 L48,90 Q56,90 56,82 L56,48 Q56,42 52,40"/>
  <!-- Dropper neck -->
  <rect x="34" y="28" width="12" height="12" rx="2"/>
  <!-- Dropper bulb -->
  <path d="M36,28 Q36,18 40,14 Q44,18 44,28" fill="#c4b99a" opacity="0.2"/>
  <path d="M36,28 Q36,18 40,14 Q44,18 44,28"/>
  <!-- Dropper stick -->
  <line x1="40" y1="40" x2="40" y2="65" stroke-dasharray="2,3" opacity="0.5"/>
  <!-- Drop at bottom -->
  <path d="M40,65 Q38,69 40,72 Q42,69 40,65" fill="#8b7d65" opacity="0.3"/>
  <!-- Decorative botanical -->
  <path d="M15,70 Q20,60 18,50" opacity="0.3"/>
  <path d="M18,58 Q13,55 10,58" opacity="0.3"/>
  <path d="M65,70 Q60,60 62,50" opacity="0.3"/>
  <path d="M62,58 Q67,55 70,58" opacity="0.3"/>
</svg>