<svg xmlns="http://www.w3.org/2000/svg" viewBox="0 0 80 100" fill="none" stroke="#8b7d65" stroke-width="1" stroke-linecap="round" stroke-linejoin="round">
  <!-- Tube body -->
  <path d="M24,35 L20,40 L20,82 Q20,90 28,90 L52,90 Q60,90 60,82 L60,40 L56,35" fill="#c4b99a" opacity="0.15"/>
  <path d="M24,35 L20,40 L20,82 Q20,90 28,90 L52,90 Q60,90 60,82 L60,40 L56,35"/>
  <!-- Cap -->
  <rect x="28" y="20" width="24" height="15" rx="4" fill="#8b7d65" opacity="0.1"/>
  <rect x="28" y="20" width="24" height="15" rx="4"/>
  <!-- Sun decoration -->
  <circle cx="40" cy="60" r="10" fill="#c4b99a" opacity="0.3"/>
  <circle cx="40" cy="60" r="10" opacity="0.5"/>
  <!-- Sun rays -->
  <line x1="40" y1="46" x2="40" y2="42" opacity="0.4"/>
  <line x1="40" y1="74" x2="40" y2="78" opacity="0.4"/>
  <line x1="26" y1="60" x2="22" y2="60" opacity="0.4"/>
  <line x1="54" y1="60" x2="58" y2="60" opacity="0.4"/>
  <line x1="30" y1="50" x2="27" y2="47" opacity="0.3"/>
  <line x1="50" y1="50" x2="53" y2="47" opacity="0.3"/>
  <line x1="30" y1="70" x2="27" y2="73" opacity="0.3"/>
  <line x1="50" y1="70" x2="53" y2="73" opacity="0.3"/>
</svg>